<svg xmlns="http://www.w3.org/2000/svg" width="256" height="256" viewBox="0 0 100 100"><rect width="100" height="100" rx="50" fill="#ffffff"></rect><path fill="#000000" d="M24.73 77.79L24.73 77.79Q19.50 77.79 15.34 75.79Q11.18 73.79 8.27 70.13Q5.36 66.48 3.82 61.47Q2.28 56.46 2.28 50.41L2.28 50.41L2.28 49.63Q2.28 43.62 3.82 38.59Q5.36 33.56 8.27 29.89Q11.18 26.21 15.34 24.21Q19.50 22.21 24.73 22.21L24.73 22.21Q30.26 22.21 34.45 24.21Q38.64 26.21 41.48 29.89Q44.32 33.56 45.77 38.59Q47.22 43.62 47.22 49.63L47.22 49.63L47.22 50.41Q47.22 56.46 45.77 61.47Q44.32 66.48 41.48 70.13Q38.64 73.79 34.45 75.79Q30.26 77.79 24.73 77.79ZM24.73 71.71L24.73 71.71Q30.11 71.71 33.43 69.04Q36.75 66.37 38.31 61.56Q39.87 56.75 39.87 50.41L39.87 50.41L39.87 49.55Q39.87 43.25 38.29 38.48Q36.71 33.71 33.38 31.02Q30.04 28.33 24.73 28.33L24.73 28.33Q19.87 28.33 16.49 31.04Q13.11 33.75 11.37 38.51Q9.63 43.28 9.63 49.55L9.63 49.55L9.63 50.41Q9.63 56.72 11.37 61.52Q13.11 66.33 16.49 69.02Q19.87 71.71 24.73 71.71ZM74.34 77.02L52.82 77.02L52.82 72.34L58.87 71.30L58.87 28.74L52.82 27.70L52.82 22.98L58.87 22.98L73.97 22.98Q81.13 22.98 86.46 26.40Q91.79 29.81 94.75 35.79Q97.72 41.76 97.72 49.44L97.72 49.44L97.72 50.59Q97.72 58.09 94.87 64.08Q92.01 70.08 86.76 73.55Q81.51 77.02 74.34 77.02L74.34 77.02ZM66.18 28.74L66.18 71.30L73.97 71.30Q79.09 71.30 82.77 68.50Q86.44 65.70 88.43 61.00Q90.41 56.31 90.41 50.59L90.41 50.59L90.41 49.37Q90.41 43.47 88.43 38.81Q86.44 34.15 82.77 31.45Q79.09 28.74 73.97 28.74L73.97 28.74L66.18 28.74Z"></path></svg>